<?xml version="1.0" encoding="UTF-8"?>
<svg width="177px" height="340px" viewBox="0 0 177 340" version="1.1" xmlns="http://www.w3.org/2000/svg" xmlns:xlink="http://www.w3.org/1999/xlink">
    <title>Artwork 3</title>
    <defs>
        <linearGradient x1="111.232246%" y1="72.3288558%" x2="81.9960649%" y2="0%" id="linearGradient-1">
            <stop stop-color="#9CBCFF" offset="0%"></stop>
            <stop stop-color="#6386FF" offset="100%"></stop>
        </linearGradient>
        <ellipse id="path-2" cx="11.3944851" cy="11.3671487" rx="10.5" ry="10.465807"></ellipse>
        <filter x="-35.7%" y="-21.5%" width="171.4%" height="171.7%" filterUnits="objectBoundingBox" id="filter-3">
            <feOffset dx="0" dy="3" in="SourceAlpha" result="shadowOffsetOuter1"></feOffset>
            <feGaussianBlur stdDeviation="2" in="shadowOffsetOuter1" result="shadowBlurOuter1"></feGaussianBlur>
            <feColorMatrix values="0 0 0 0 1   0 0 0 0 0.658537492   0 0 0 0 0.386284722  0 0 0 0.328662817 0" type="matrix" in="shadowBlurOuter1"></feColorMatrix>
        </filter>
        <linearGradient x1="50%" y1="-27.9695722%" x2="50%" y2="100%" id="linearGradient-4">
            <stop stop-color="#D4D4D4" offset="0%"></stop>
            <stop stop-color="#B5B5B5" offset="100%"></stop>
        </linearGradient>
    </defs>
    <g id="Empty-States" stroke="none" stroke-width="1" fill="none" fill-rule="evenodd">
        <g id="9.2_Empty-Wallet" transform="translate(-108.000000, -63.000000)">
            <g id="Artwork" transform="translate(108.000000, 63.000000)">
                <polygon id="Rectangle-32-Copy" fill="#1B3554" points="43.5 189 99.5 189 102.5 332.17587 89.9069754 332.17587 72.5 208.106024 51.6002314 332.17587 40.5 332.17587"></polygon>
                <rect id="Rectangle-2" fill="#FFAE75" transform="translate(37.500000, 177.000000) rotate(19.000000) translate(-37.500000, -177.000000) " x="29" y="172" width="17" height="10" rx="5"></rect>
                <g id="Group-13" transform="translate(46.000000, 23.000000)">
                    <path d="M12.0377358,21.8867925 C12.0377358,11.5601097 20.4091663,3.18867925 30.7358491,3.18867925 C41.3085488,3.18867925 50.1200972,11.2850712 51.0128885,21.8200085 L51.853702,31.7416086 L57.5960771,42.5016346 L52.1396259,42.9155107 L53.317101,52.8066826 C53.8393785,57.1939832 50.7061583,61.1739826 46.3188577,61.6962602 C45.8800381,61.7484986 45.4376446,61.7642869 44.9962177,61.743463 L29.5471698,61.0144292 L33.9245283,77.6037736 L12.0377358,77.6037736 L12.0377358,21.8867925 Z" id="Combined-Shape" fill="#FFAE75"></path>
                    <ellipse id="Oval-3" fill="#AB5C5C" cx="14.2264151" cy="30.5471698" rx="14.2264151" ry="20.7924528"></ellipse>
                    <path d="M36.1132075,32.7358491 C48.2009492,32.7358491 58,25.6315373 58,16.8679245 C58,8.1043118 53.9635402,13.0204692 38.4657965,3.08564146 C26.6008117,-4.52040639 12.5426445,6.79158354 8.80060374,11.6483889 C7.03883436,13.9349944 14.2264151,14.0626925 14.2264151,16.8679245 C14.2264151,25.6315373 24.0254659,32.7358491 36.1132075,32.7358491 Z" id="Oval-2" fill="#AB5C5C"></path>
                    <path d="M10.4932764,14.9571233 C11.2310138,13.7994634 12.7428725,12.5573699 15.0288525,11.2308429 C17.3148325,9.90431598 19.6008125,8.9425689 21.8867925,8.34560169 L21.8867925,53.3396226 L12.0377358,53.3396226 L9.05522112,46.705337 L7.63419123,29.7577996 L10.4932764,14.9571233 Z" id="Rectangle" fill="#AB5C5C"></path>
                    <path d="M56.5015964,5.70592983 C58.3297925,8.75107719 62.1741209,19.3934376 53.8235321,26.0671288 C48.2564729,30.5162562 45.894051,26.581272 46.7362664,14.2621759 C51.4611102,14.2621759 54.7162202,11.4100939 56.5015964,5.70592983 Z" id="Path-4" fill="#AB5C5C"></path>
                </g>
                <path d="M62.3629975,93 L71.5,93 C84.4581685,93 94.9628396,103.504671 94.9628396,116.46284 C94.9628396,117.313693 94.9165568,118.163916 94.8241963,119.009742 L93.6881833,129.413201 L93.6881833,129.413201 L103,189 L40,189 L44.3907351,110.001107 C44.9208721,100.462789 52.8099581,93 62.3629975,93 Z" id="Rectangle-32" fill="url(#linearGradient-1)"></path>
                <g id="Group-17" transform="translate(125.577982, 97.074742) rotate(11.000000) translate(-125.577982, -97.074742) translate(83.577982, 48.074742)">
                    <g id="Group-15" transform="translate(58.138322, 30.825591) rotate(-13.000000) translate(-58.138322, -30.825591) translate(37.638322, 4.825591)">
                        <g id="Group-16" transform="translate(18.573299, 25.711030) rotate(-5.000000) translate(-18.573299, -25.711030) translate(1.073299, 0.711030)">
                            <path d="M9.90694479,42.5825384 L23.8909532,46.5678601 C25.4843622,47.0219679 27.1442025,46.0983818 27.5983103,44.5049728 C27.6728407,44.2434545 27.7114684,43.973017 27.713132,43.7010908 L27.9437877,5.9983191 C27.9539237,4.34149585 26.61902,2.99015837 24.9621967,2.98002236 C24.9361857,2.97986323 24.9101738,2.9800424 24.8841675,2.98055983 L10.2142517,3.27243352 C8.56506998,3.30524575 7.25174229,4.66334061 7.27420627,6.3126957 L7.7294579,39.7382721 C7.74750328,41.0632031 8.63263064,42.2193699 9.90694479,42.5825384 Z" id="Path-47" fill="#3F3F3F" transform="translate(17.598115, 25.284787) rotate(18.000000) translate(-17.598115, -25.284787) "></path>
                            <polygon id="Path-47-Copy" fill="#E7F6FF" transform="translate(17.137011, 24.605607) rotate(18.000000) translate(-17.137011, -24.605607) " points="10.4116408 39.323191 23.8485999 42.9528671 24.3467779 6.28202909 9.92724413 6.25834621"></polygon>
                        </g>
                        <path d="M23.7098764,25.2449149 L27.8494415,26.8799612 C32.8501711,28.8551504 35.8757235,33.9690461 35.199334,39.3030096 L34.4374468,45.3112025 C34.2089365,47.1132196 32.7949003,48.535025 30.9941623,48.7734055 L28.2803848,49.1326535 C26.0903519,49.4225686 24.0799568,47.8822187 23.7900417,45.6921857 C23.7674042,45.5211812 23.7558521,45.3488915 23.7554576,45.1763956 L23.7098764,25.2449149 L23.7098764,25.2449149 Z" id="Rectangle-2" fill="#FFAE75" transform="translate(29.501630, 37.206310) rotate(28.000000) translate(-29.501630, -37.206310) "></path>
                        <path d="M23.3286604,26.5482057 C23.8886831,26.2728782 24.5658683,26.5036692 24.8411959,27.0636919 C24.8811689,27.1449979 24.911218,27.2308165 24.9306957,27.3192989 L26.8848873,36.1966726 C27.2250409,37.7419003 26.2916414,39.2818801 24.7643666,39.6952379 C23.6112443,40.0073311 22.4234525,39.3255423 22.1113593,38.17242 C22.0614985,37.9881941 22.0362391,37.7981794 22.0362391,37.6073254 L22.0362391,28.6237764 C22.0362391,27.7421385 22.5374704,26.9371835 23.3286604,26.5482057 Z" id="Rectangle-2-Copy" fill="#FFAE75" transform="translate(24.495489, 33.101465) rotate(-8.000000) translate(-24.495489, -33.101465) "></path>
                    </g>
                    <path d="M2.28866363,79.6269211 C13.030616,96.2049577 26.8602965,99.9591327 46.2973812,95.2300902 C67.2015352,90.1441098 73.4209744,69.8319728 71.9066195,48.2123412 L62.3978914,49.1905794 C63.4501874,64.2136444 60.0338238,76.2095067 45.9877303,79.6269211 C32.9046223,82.8100411 18.6210038,75.5219593 10.8745676,63.5668977 C7.22287763,63.1907661 4.36090964,64.9407792 2.28866363,68.8169371 C0.216417615,72.693095 0.216417615,76.296423 2.28866363,79.6269211 Z" id="Path-20" fill="#6386FF" fill-rule="nonzero"></path>
                </g>
                <g id="Group-4" transform="translate(146.978531, 49.446318)">
                    <g id="Oval-9">
                        <use fill="black" fill-opacity="1" filter="url(#filter-3)" xlink:href="#path-2"></use>
                        <use fill="#FFC063" fill-rule="evenodd" xlink:href="#path-2"></use>
                    </g>
                    <path d="M10.8048755,12.1656826 L10.5399749,8.20045077 C10.4903057,7.42781998 10.4654715,6.87318976 10.4654715,6.53654349 C10.4654715,6.0784838 10.5855035,5.72114742 10.8255709,5.46452362 C11.0656383,5.20789982 11.3815844,5.07958984 11.7734186,5.07958984 C12.2480346,5.07958984 12.5653604,5.24377142 12.7254053,5.57213951 C12.8854503,5.9005076 12.9654715,6.37373686 12.9654715,6.9918415 C12.9654715,7.35608173 12.9461561,7.72583521 12.9075245,8.10111302 L12.5515643,12.1822389 C12.5129327,12.6678925 12.4301521,13.0404053 12.3032199,13.2997885 C12.1762877,13.5591717 11.9665768,13.6888614 11.6740808,13.6888614 C11.3760661,13.6888614 11.1691145,13.5633107 11.0532199,13.3122057 C10.9373253,13.0611007 10.8545446,12.6789302 10.8048755,12.1656826 Z M11.7237497,17.6127024 C11.3871034,17.6127024 11.0932322,17.5037079 10.8421272,17.2857157 C10.5910222,17.0677234 10.4654715,16.7628148 10.4654715,16.3709806 C10.4654715,16.0288155 10.5855035,15.7377036 10.8255709,15.4976362 C11.0656383,15.2575688 11.3595095,15.1375369 11.7071934,15.1375369 C12.0548773,15.1375369 12.3515078,15.2575688 12.5970941,15.4976362 C12.8426803,15.7377036 12.9654715,16.0288155 12.9654715,16.3709806 C12.9654715,16.757296 12.8413006,17.0608249 12.592955,17.2815766 C12.3446094,17.5023283 12.0548772,17.6127024 11.7237497,17.6127024 Z" id="!" fill="#FFFFFF"></path>
                </g>
                <path d="M-14.0302624,115.862217 C1.6366301,138.773769 25.600486,158.171823 42.2078754,158.002347 C60.9646015,157.810936 73.9602444,144.976218 76.736283,123.671221 L66.285302,122.532906 C64.3725425,137.212577 53.5044405,143.886338 42.0650144,144.003076 C31.4869621,144.111024 23.2893561,131.018663 10.025,111.620625 L-14.0302624,115.862217 Z" id="Path-20-Copy" fill="#6386FF" fill-rule="nonzero" transform="translate(31.353010, 134.812037) rotate(-260.000000) translate(-31.353010, -134.812037) "></path>
                <polygon id="Rectangle-57" fill="#6386FF" points="40 332 62 332 71 340 40 340"></polygon>
                <polygon id="Rectangle-57-Copy" fill="#6386FF" points="90 332 112 332 121 340 90 340"></polygon>
                <g id="Group-6" transform="translate(110.996882, 18.492289) rotate(-5.000000) translate(-110.996882, -18.492289) translate(92.996882, 1.992289)" fill="url(#linearGradient-4)">
                    <rect id="Rectangle-34" x="0" y="0" width="4.64516129" height="12.7741935" rx="2.32258065"></rect>
                    <rect id="Rectangle-34-Copy" transform="translate(19.931034, 13.889523) rotate(45.000000) translate(-19.931034, -13.889523) " x="17.6084533" y="7.50242659" width="4.64516129" height="12.7741935" rx="2.32258065"></rect>
                    <path d="M29.6129032,23.8064516 C30.8956291,23.8064516 31.9354839,24.8463064 31.9354839,26.1290323 L31.9354839,34.2580645 C31.9354839,35.5407904 30.8956291,36.5806452 29.6129032,36.5806452 C28.3301774,36.5806452 27.2903226,35.5407904 27.2903226,34.2580645 L27.2903226,26.1290323 C27.2903226,24.8463064 28.3301774,23.8064516 29.6129032,23.8064516 Z" id="Rectangle-34-Copy-2" transform="translate(29.612903, 30.193548) rotate(90.000000) translate(-29.612903, -30.193548) "></path>
                </g>
            </g>
        </g>
    </g>
</svg>